<svg xmlns="http://www.w3.org/2000/svg" viewBox="0 0 32 32"><rect width="32" height="32" rx="8" fill="#5250d4"/><rect x="5" y="5" width="4" height="4" rx="1.2" fill="#fff" opacity="0.61"/><rect x="11" y="5" width="4" height="4" rx="1.2" fill="#fff" opacity="0.74"/><rect x="17" y="5" width="4" height="4" rx="1.2" fill="#fff" opacity="0.87"/><rect x="23" y="5" width="4" height="4" rx="1.2" fill="#fff" opacity="1.00"/><rect x="5" y="11" width="4" height="4" rx="1.2" fill="#fff" opacity="0.48"/><rect x="11" y="11" width="4" height="4" rx="1.2" fill="#fff" opacity="0.61"/><rect x="17" y="11" width="4" height="4" rx="1.2" fill="#fff" opacity="0.74"/><rect x="23" y="11" width="4" height="4" rx="1.2" fill="#fff" opacity="0.87"/><rect x="5" y="17" width="4" height="4" rx="1.2" fill="#fff" opacity="0.35"/><rect x="11" y="17" width="4" height="4" rx="1.2" fill="#fff" opacity="0.48"/><rect x="17" y="17" width="4" height="4" rx="1.2" fill="#fff" opacity="0.61"/><rect x="23" y="17" width="4" height="4" rx="1.2" fill="#fff" opacity="0.74"/><rect x="5" y="23" width="4" height="4" rx="1.2" fill="#fff" opacity="0.22"/><rect x="11" y="23" width="4" height="4" rx="1.2" fill="#fff" opacity="0.35"/><rect x="17" y="23" width="4" height="4" rx="1.2" fill="#fff" opacity="0.48"/><rect x="23" y="23" width="4" height="4" rx="1.2" fill="#fff" opacity="0.61"/></svg>
